M48
;Layer_Color=9474304
;FILE_FORMAT=4:3
METRIC,TZ
;TYPE=PLATED
T01F00S00C0.711
T02F00S00C1.020
%
T01
X19842Y-12505
X21361Y-12381
X18940Y-6313
X19736Y-915
X24798Y-6836
X17032Y3193
X10312Y2819
X10316Y-3524
X3581Y-6172
X2972Y-8265
X4253Y-9119
X4895Y-10540
X4968Y-7661
X9667Y-13295
X-4826Y-3810
X-1194Y3790
X1295Y3226
X-9577Y6904
X-20930Y-4877
X-23582Y-3040
X-23774Y150
X-23994Y2295
X-25534Y2350
X-23495Y-7442
X9576Y11557
X14783Y11404
X16307Y11963
X17170Y13690
X15799Y9271
X13818Y7544
X26889Y7769
X26808Y9280
T02
X-17998Y-9300
X-15458
X-12918
M30
