G04*
G04 #@! TF.GenerationSoftware,Altium Limited,Altium Designer,25.8.1 (18)*
G04*
G04 Layer_Physical_Order=2*
G04 Layer_Color=16711680*
%FSLAX44Y44*%
%MOMM*%
G71*
G04*
G04 #@! TF.SameCoordinates,1DE417C5-642A-4503-87AC-C91C357E1F8F*
G04*
G04*
G04 #@! TF.FilePolarity,Positive*
G04*
G01*
G75*
%ADD15C,0.2540*%
G04:AMPARAMS|DCode=22|XSize=1mm|YSize=1mm|CornerRadius=0.5mm|HoleSize=0mm|Usage=FLASHONLY|Rotation=30.000|XOffset=0mm|YOffset=0mm|HoleType=Round|Shape=RoundedRectangle|*
%AMROUNDEDRECTD22*
21,1,1.0000,0.0000,0,0,30.0*
21,1,0.0000,1.0000,0,0,30.0*
1,1,1.0000,0.0000,0.0000*
1,1,1.0000,0.0000,0.0000*
1,1,1.0000,0.0000,0.0000*
1,1,1.0000,0.0000,0.0000*
%
%ADD22ROUNDEDRECTD22*%
G04:AMPARAMS|DCode=24|XSize=1mm|YSize=1mm|CornerRadius=0.5mm|HoleSize=0mm|Usage=FLASHONLY|Rotation=90.000|XOffset=0mm|YOffset=0mm|HoleType=Round|Shape=RoundedRectangle|*
%AMROUNDEDRECTD24*
21,1,1.0000,0.0000,0,0,90.0*
21,1,0.0000,1.0000,0,0,90.0*
1,1,1.0000,0.0000,0.0000*
1,1,1.0000,0.0000,0.0000*
1,1,1.0000,0.0000,0.0000*
1,1,1.0000,0.0000,0.0000*
%
%ADD24ROUNDEDRECTD24*%
G04:AMPARAMS|DCode=26|XSize=1mm|YSize=1mm|CornerRadius=0.5mm|HoleSize=0mm|Usage=FLASHONLY|Rotation=330.000|XOffset=0mm|YOffset=0mm|HoleType=Round|Shape=RoundedRectangle|*
%AMROUNDEDRECTD26*
21,1,1.0000,0.0000,0,0,330.0*
21,1,0.0000,1.0000,0,0,330.0*
1,1,1.0000,0.0000,0.0000*
1,1,1.0000,0.0000,0.0000*
1,1,1.0000,0.0000,0.0000*
1,1,1.0000,0.0000,0.0000*
%
%ADD26ROUNDEDRECTD26*%
%ADD47R,0.8900X0.6400*%
%ADD67C,0.6500*%
%ADD68C,1.5700*%
%ADD69R,1.5700X1.5700*%
%ADD71C,1.2700*%
%ADD72R,1.0061X0.9582*%
%ADD73R,0.4001X1.9000*%
%ADD74R,0.3000X0.8500*%
%ADD75R,0.5000X0.9000*%
%ADD76R,0.8000X0.9500*%
%ADD77R,5.7000X5.7000*%
%ADD78R,0.8500X0.3000*%
%ADD79R,1.3970X1.0922*%
%ADD80R,0.6000X0.8000*%
G36*
X164770Y163820D02*
X163932Y162284D01*
X161738Y159559D01*
X159094Y157268D01*
X156085Y155483D01*
X152806Y154263D01*
X149363Y153644D01*
X145864Y153648D01*
X142422Y154275D01*
X139146Y155503D01*
X136141Y157294D01*
X133503Y159592D01*
X131315Y162322D01*
X130481Y163860D01*
X130481Y163860D01*
X147613Y173750D01*
X164770Y163820D01*
D02*
G37*
G36*
X-135230D02*
X-136067Y162284D01*
X-138261Y159559D01*
X-140905Y157268D01*
X-143914Y155483D01*
X-147193Y154263D01*
X-150637Y153644D01*
X-154135Y153648D01*
X-157577Y154275D01*
X-160853Y155503D01*
X-163858Y157294D01*
X-166497Y159592D01*
X-168685Y162322D01*
X-169518Y163860D01*
X-169518Y163860D01*
X-152387Y173750D01*
X-135230Y163820D01*
D02*
G37*
G36*
X-53382Y116601D02*
X-54443Y114685D01*
X-57145Y111236D01*
X-60359Y108258D01*
X-64004Y105827D01*
X-67987Y104003D01*
X-72209Y102831D01*
X-76563Y102343D01*
X-80940Y102550D01*
X-85228Y103447D01*
X-89321Y105010D01*
X-93115Y107202D01*
X-96514Y109967D01*
X-99432Y113234D01*
X-101798Y116923D01*
X-103549Y120939D01*
X-104643Y125181D01*
X-105052Y129543D01*
X-104766Y133915D01*
X-103791Y138187D01*
X-102153Y142250D01*
X-101023Y144127D01*
X-101023D01*
X-53382Y116601D01*
D02*
G37*
G36*
X-202692Y142205D02*
X-201056Y138140D01*
X-200084Y133868D01*
X-199801Y129496D01*
X-200212Y125134D01*
X-201309Y120892D01*
X-203063Y116877D01*
X-205431Y113190D01*
X-208351Y109925D01*
X-211752Y107162D01*
X-215547Y104973D01*
X-219641Y103411D01*
X-223930Y102517D01*
X-228307Y102313D01*
X-232660Y102804D01*
X-236882Y103978D01*
X-240864Y105805D01*
X-244507Y108239D01*
X-247719Y111219D01*
X-250419Y114669D01*
X-251479Y116586D01*
X-251479Y116586D01*
X-203821Y144082D01*
X-202692Y142205D01*
D02*
G37*
G36*
X-2400Y87176D02*
X14278Y96781D01*
X15189Y95288D01*
X16452Y92025D01*
X17114Y88590D01*
X17155Y85092D01*
X16573Y81642D01*
X15387Y78351D01*
X13634Y75323D01*
X11371Y72655D01*
X8669Y70432D01*
X5615Y68726D01*
X2306Y67589D01*
X-1152Y67059D01*
X-2400Y67093D01*
X-3649Y67059D01*
X-7107Y67589D01*
X-10416Y68726D01*
X-13470Y70432D01*
X-16171Y72655D01*
X-18435Y75323D01*
X-20187Y78351D01*
X-21374Y81642D01*
X-21956Y85092D01*
X-21915Y88590D01*
X-21253Y92025D01*
X-19990Y95288D01*
X-19079Y96781D01*
Y96781D01*
X-2400Y87176D01*
D02*
G37*
G36*
X-284777Y95288D02*
X-283514Y92025D01*
X-282852Y88590D01*
X-282811Y85092D01*
X-283393Y81642D01*
X-284580Y78351D01*
X-286332Y75323D01*
X-288596Y72655D01*
X-291297Y70432D01*
X-294351Y68726D01*
X-297660Y67589D01*
X-301118Y67059D01*
X-302867Y67106D01*
X-302867Y67106D01*
Y86888D01*
X-285688Y96781D01*
X-284777Y95288D01*
D02*
G37*
G36*
X298113Y86865D02*
X298091Y67041D01*
X296342Y66999D01*
X292885Y67536D01*
X289579Y68680D01*
X286529Y70394D01*
X283833Y72623D01*
X281575Y75296D01*
X279830Y78328D01*
X278651Y81622D01*
X278077Y85073D01*
X278126Y88571D01*
X278796Y92005D01*
X280066Y95265D01*
X280981Y96756D01*
X280981D01*
X298113Y86865D01*
D02*
G37*
G36*
X-296410Y26904D02*
X-292224Y25609D01*
X-288296Y23669D01*
X-284724Y21131D01*
X-281599Y18060D01*
X-278999Y14534D01*
X-276990Y10640D01*
X-275622Y6478D01*
X-274930Y2152D01*
X-274932Y-2230D01*
X-275626Y-6556D01*
X-276997Y-10717D01*
X-279008Y-14609D01*
X-281610Y-18134D01*
X-284737Y-21203D01*
X-288311Y-23738D01*
X-292240Y-25676D01*
X-296427Y-26968D01*
X-300765Y-27581D01*
X-302955Y-27541D01*
Y-27541D01*
X-302938Y27480D01*
X-300748Y27520D01*
X-296410Y26904D01*
D02*
G37*
G36*
X2306Y-67589D02*
X5615Y-68726D01*
X8669Y-70432D01*
X11371Y-72655D01*
X13634Y-75323D01*
X15387Y-78351D01*
X16573Y-81642D01*
X17155Y-85092D01*
X17114Y-88590D01*
X16452Y-92025D01*
X15189Y-95288D01*
X14278Y-96781D01*
X-2400Y-87176D01*
X-19079Y-96781D01*
X-19990Y-95288D01*
X-21253Y-92025D01*
X-21915Y-88590D01*
X-21956Y-85092D01*
X-21374Y-81642D01*
X-20187Y-78351D01*
X-18435Y-75323D01*
X-16171Y-72655D01*
X-13470Y-70432D01*
X-10416Y-68726D01*
X-7107Y-67589D01*
X-3649Y-67059D01*
X-2400Y-67093D01*
X-1152Y-67059D01*
X2306Y-67589D01*
D02*
G37*
G36*
X-297653Y-67536D02*
X-294347Y-68680D01*
X-291297Y-70394D01*
X-288600Y-72623D01*
X-286343Y-75296D01*
X-284597Y-78328D01*
X-283419Y-81622D01*
X-282845Y-85073D01*
X-282893Y-88571D01*
X-283564Y-92005D01*
X-284834Y-95265D01*
X-285749Y-96756D01*
Y-96756D01*
X-302880Y-86865D01*
X-302859Y-67041D01*
X-301110Y-66999D01*
X-297653Y-67536D01*
D02*
G37*
G36*
X298099Y-67106D02*
X298099D01*
Y-86888D01*
X280921Y-96781D01*
X280009Y-95288D01*
X278747Y-92025D01*
X278084Y-88590D01*
X278044Y-85092D01*
X278626Y-81642D01*
X279812Y-78351D01*
X281565Y-75323D01*
X283828Y-72655D01*
X286530Y-70432D01*
X289584Y-68726D01*
X292893Y-67589D01*
X296351Y-67059D01*
X298099Y-67106D01*
D02*
G37*
G36*
X14278Y-96781D02*
X14278D01*
D01*
X14278D01*
D02*
G37*
G36*
X-72140Y-102804D02*
X-67918Y-103978D01*
X-63936Y-105805D01*
X-60293Y-108239D01*
X-57081Y-111219D01*
X-54381Y-114669D01*
X-53321Y-116586D01*
X-100979Y-144082D01*
X-102108Y-142205D01*
X-103744Y-138140D01*
X-104716Y-133868D01*
X-105000Y-129496D01*
X-104588Y-125134D01*
X-103491Y-120892D01*
X-101737Y-116877D01*
X-99369Y-113190D01*
X-96449Y-109925D01*
X-93048Y-107162D01*
X-89253Y-104973D01*
X-85159Y-103411D01*
X-80870Y-102517D01*
X-76493Y-102313D01*
X-72140Y-102804D01*
D02*
G37*
G36*
X-223860Y-102550D02*
X-219572Y-103447D01*
X-215479Y-105011D01*
X-211685Y-107202D01*
X-208286Y-109967D01*
X-205368Y-113234D01*
X-203002Y-116923D01*
X-201251Y-120939D01*
X-200157Y-125181D01*
X-199748Y-129543D01*
X-200034Y-133915D01*
X-201009Y-138187D01*
X-202647Y-142250D01*
X-203777Y-144127D01*
Y-144127D01*
X-251418Y-116601D01*
X-250357Y-114685D01*
X-247655Y-111236D01*
X-244441Y-108259D01*
X-240796Y-105827D01*
X-236813Y-104003D01*
X-232591Y-102831D01*
X-228237Y-102343D01*
X-223860Y-102550D01*
D02*
G37*
G36*
X149334Y-153648D02*
X152776Y-154275D01*
X156052Y-155503D01*
X159057Y-157294D01*
X161696Y-159592D01*
X163884Y-162322D01*
X164718Y-163860D01*
X164718D01*
X147586Y-173750D01*
X130429Y-163820D01*
X131266Y-162284D01*
X133461Y-159559D01*
X136105Y-157268D01*
X139114Y-155483D01*
X142392Y-154263D01*
X145836Y-153644D01*
X149334Y-153648D01*
D02*
G37*
G36*
X-150665D02*
X-147223Y-154275D01*
X-143947Y-155503D01*
X-140942Y-157294D01*
X-138303Y-159592D01*
X-136116Y-162322D01*
X-135282Y-163860D01*
X-135282D01*
X-152413Y-173750D01*
X-169570Y-163820D01*
X-168733Y-162284D01*
X-166539Y-159559D01*
X-163895Y-157268D01*
X-160886Y-155483D01*
X-157607Y-154263D01*
X-154164Y-153644D01*
X-150665Y-153648D01*
D02*
G37*
D15*
X-241046Y36218D02*
Y58419D01*
X-213883Y22954D02*
X-212986Y23851D01*
X-253759Y23504D02*
X-241046Y36218D01*
X-255344Y23504D02*
X-253759D01*
X-239941Y22954D02*
X-213883D01*
X-237741Y1501D02*
X-214439D01*
X-251056Y2555D02*
X-241366Y12244D01*
X-204163D01*
X-251056Y-36717D02*
Y2555D01*
X-214439Y1501D02*
X-212654Y3286D01*
X-204163Y12244D02*
X-198965Y17443D01*
X-234494Y-29083D02*
X-224386D01*
X-245975Y-34613D02*
X-191639Y-88950D01*
X-235413Y-15766D02*
X-224982Y-5335D01*
X-224386Y-29083D02*
X-211154Y-15851D01*
X-245975Y-34613D02*
Y-26196D01*
X-196719Y-109743D02*
Y-91054D01*
X-235545Y-15766D02*
X-235413D01*
X-224982Y-5335D02*
X-201676D01*
X-245975Y-26196D02*
X-235545Y-15766D01*
X-251056Y-36717D02*
X-196719Y-91054D01*
X-235816Y-30404D02*
X-234494Y-29083D01*
X-191639Y-104663D02*
Y-88950D01*
X-211154Y-15851D02*
Y-15101D01*
X-211876Y-46189D02*
Y-32475D01*
Y-23877D01*
X-202210D01*
X170325Y31926D02*
X175768Y37369D01*
X103156Y-35243D02*
X170325Y31926D01*
X175768Y37369D02*
Y54609D01*
X185928Y-35307D02*
Y64769D01*
X147828Y82549D02*
X175768Y54609D01*
X-11938Y37899D02*
X35814Y-9853D01*
X171704Y136905D02*
X197358Y111251D01*
X157988Y92709D02*
X185928Y64769D01*
X35814Y-61723D02*
Y-9853D01*
X197358Y-9145D02*
Y111251D01*
X42527Y-91189D02*
X44471Y-89245D01*
Y-83551D01*
X38997Y-89024D02*
X40362D01*
X42527Y-91189D01*
X44471Y-83551D02*
X49678Y-78344D01*
X29716Y-82655D02*
X29939Y-82878D01*
Y-88228D02*
Y-82878D01*
Y-88228D02*
X38997Y-89024D01*
X35085Y-103457D02*
X47003D01*
X48948Y-105401D01*
X59107Y-103633D02*
X60377Y-102363D01*
X99100D01*
X48948Y-105401D02*
X50715Y-103633D01*
X34250Y-102782D02*
X34410D01*
X50715Y-103633D02*
X59107D01*
X34410Y-102782D02*
X35085Y-103457D01*
X99100Y-102363D02*
X99844Y-103107D01*
X24035Y-64964D02*
X30954Y-71883D01*
X24035Y-64964D02*
Y-56897D01*
X49678Y-87017D02*
X58166Y-95505D01*
X30954Y-71883D02*
X40022D01*
X45454Y-66452D01*
X145952D01*
X49678Y-78344D02*
Y-76612D01*
Y-87017D02*
Y-78344D01*
X145952Y-66452D02*
X155295Y-75794D01*
X58166Y-95505D02*
X64008D01*
X29223Y-83148D02*
X29716Y-82655D01*
X24859Y-83148D02*
X29223D01*
X18211Y-66313D02*
X18955Y-67057D01*
X13875Y-61977D02*
X18211Y-66313D01*
X18955Y-67057D02*
X24859Y-83148D01*
X11938Y-78995D02*
X20932Y-87989D01*
X28516Y-97048D02*
X34250Y-102782D01*
X99844Y-103107D02*
X143321Y-146584D01*
X20932Y-87989D02*
X28516Y-97048D01*
X11938Y-78995D02*
Y-73661D01*
X5334Y-67057D02*
X11938Y-73661D01*
X-126746Y-67057D02*
X5334D01*
X5239Y-38101D02*
X24035Y-56897D01*
X129727Y-157905D02*
X136605Y-161876D01*
X147599Y-165199D01*
X96666Y-132951D02*
X129727Y-157905D01*
X143321Y-146584D02*
X183562D01*
X184614Y-146584D01*
X202628Y-135210D01*
X208580Y-129259D01*
X213609Y-123810D01*
X199560Y-67343D02*
Y-58926D01*
X198420Y-125050D02*
X199560Y-67343D01*
X193609Y-52975D02*
X198816Y-58182D01*
X199560Y-58926D01*
X155295Y-75794D02*
X156783Y-77282D01*
X160884D02*
X185192Y-52975D01*
X193609D01*
X156783Y-77282D02*
X160884D01*
X155295Y-75794D02*
Y-65940D01*
X185928Y-35307D01*
X183134Y-108967D02*
X189400Y-102701D01*
X170688Y-108967D02*
X183134D01*
X64008Y-95505D02*
X143764D01*
X157226D02*
X170688Y-108967D01*
X143764Y-95505D02*
X157226D01*
X189400Y-102701D02*
Y-63134D01*
X218981Y-68360D02*
X247985D01*
X185928Y-35307D02*
X218981Y-68360D01*
X268888Y77688D02*
X271364D01*
X290700Y58351D01*
Y-82601D02*
Y58351D01*
X267788Y93091D02*
X278279Y82601D01*
X290700D01*
X241240D02*
X257887D01*
X268083Y92796D01*
X267788Y93091D02*
X267788D01*
X-152400Y128015D02*
X-95768Y71383D01*
Y69043D02*
Y71383D01*
X96226Y115089D02*
X147599Y165199D01*
X57710Y77521D02*
X96226Y115089D01*
X-152400Y128015D02*
Y165199D01*
Y118109D02*
Y128015D01*
X-261366Y76961D02*
X-240638D01*
X-263906Y70357D02*
X-261366D01*
X-64722Y-77521D02*
X-1679D01*
X-67360D02*
X-64722D01*
X-287290Y-74423D02*
X-267716Y-54849D01*
X-295468Y-82601D02*
X-287290Y-74423D01*
X-198882Y-2541D02*
Y3286D01*
X-48260Y-38101D02*
X5239D01*
X157988Y92709D02*
Y114553D01*
X163068Y119633D01*
X-234796Y71120D02*
X-229234Y70231D01*
X-241046Y58419D02*
X-229234Y70231D01*
X-218186D01*
X147828Y82549D02*
Y114045D01*
X-198965Y17443D02*
Y23851D01*
X-196719Y-109743D02*
X-151061D01*
X-142918Y-101601D01*
Y-83229D01*
X-126746Y-67057D01*
X-1679Y77521D02*
X57710D01*
X95758Y115569D01*
X103124Y28193D02*
X137414D01*
X138176Y28955D01*
Y75437D01*
X99060Y32257D02*
X103124Y28193D01*
X12954Y32257D02*
X99060D01*
X147599Y165199D02*
X165687Y147112D01*
X176729D01*
X241240Y82601D01*
X-198882Y3286D02*
X-198633D01*
X-201676Y-5335D02*
X-198882Y-2541D01*
X-191639Y-104663D02*
X-168318D01*
Y-65449D01*
X-164846Y-61977D01*
X13875D01*
X-202210Y-23877D02*
X-198654Y-20321D01*
Y-15101D01*
X-211876Y-46189D02*
X-209296Y-48769D01*
X-287290Y-74423D02*
X-234950D01*
X-295468Y-82601D02*
X-233630D01*
X-201408Y-114823D01*
X-104662D01*
X-67360Y-77521D01*
X-261366Y70357D02*
Y72460D01*
X-267716Y66547D02*
X-263906Y70357D01*
X-267716Y-54849D02*
Y66547D01*
X-152400Y-165199D02*
X-64722Y-77521D01*
X-240638Y76961D02*
X-152400Y165199D01*
X-261366Y72460D02*
Y76961D01*
X-179979Y-93003D02*
Y-44521D01*
X-192024Y-32475D02*
X-179979Y-44521D01*
X-199376Y-32475D02*
X-192024D01*
X-285327Y72460D02*
X-261366D01*
X-295468Y82601D02*
X-285327Y72460D01*
X-152400Y165199D02*
X-64722Y77521D01*
X-1679D01*
X-152400Y118109D02*
X-140716Y106425D01*
Y59690D02*
Y106425D01*
X-234046Y52070D02*
X-226314D01*
X-225933Y51689D01*
X-218186D01*
X-196596D01*
X-189484D01*
X-187851Y50056D01*
X-180237D01*
X-167537D01*
X-218186Y70231D02*
X-196596D01*
X-191516D01*
X-185341Y64056D01*
X-180237D01*
X-167537D01*
X-261366Y49460D02*
X-258757Y52070D01*
X-248046D01*
D22*
X-152400Y165199D02*
D03*
Y-165199D02*
D03*
X147599Y165199D02*
D03*
Y-165199D02*
D03*
X-223901Y-123901D02*
D03*
X-80899Y123901D02*
D03*
D24*
X290700Y-82601D02*
D03*
X-295468Y82601D02*
D03*
X-1679Y77521D02*
D03*
Y-77521D02*
D03*
X-80899Y-123901D02*
D03*
X-223901Y123901D02*
D03*
D26*
X290700Y82601D02*
D03*
X-295468Y-82601D02*
D03*
X-295501Y-0D02*
D03*
D47*
X-167537Y50056D02*
D03*
Y64056D02*
D03*
X-180237Y50056D02*
D03*
Y64056D02*
D03*
D67*
X232119Y33110D02*
D03*
Y-24690D02*
D03*
D68*
X-129178Y-93003D02*
D03*
X-154579D02*
D03*
D69*
X-179979D02*
D03*
D71*
X-237741Y1501D02*
D03*
X-239941Y22954D02*
D03*
X-255344Y23504D02*
D03*
X-235816Y-30404D02*
D03*
X170325Y31926D02*
D03*
X35814Y-61723D02*
D03*
X42527Y-91189D02*
D03*
X48948Y-105401D02*
D03*
X49678Y-76612D02*
D03*
X29716Y-82655D02*
D03*
X96666Y-132951D02*
D03*
X198420Y-125050D02*
D03*
X213609Y-123810D02*
D03*
X189400Y-63134D02*
D03*
X247985Y-68360D02*
D03*
X268888Y77688D02*
D03*
X268083Y92796D02*
D03*
X-95768Y69043D02*
D03*
X-48260Y-38101D02*
D03*
X157988Y92709D02*
D03*
X163068Y119633D02*
D03*
X147828Y114045D02*
D03*
X103156Y-35243D02*
D03*
X95758Y115569D02*
D03*
X103124Y28193D02*
D03*
X138176Y75437D02*
D03*
X12954Y32257D02*
D03*
X-11938Y37899D02*
D03*
X197358Y-9145D02*
D03*
X171704Y136905D02*
D03*
X-209296Y-48769D02*
D03*
X-234950Y-74423D02*
D03*
D72*
X-212654Y3286D02*
D03*
X-212986Y23851D02*
D03*
X-198633Y3286D02*
D03*
X-198965Y23851D02*
D03*
D73*
X-152715Y59690D02*
D03*
X-140716D02*
D03*
X-128717D02*
D03*
D74*
X-143376Y34500D02*
D03*
X-138376D02*
D03*
X-148376D02*
D03*
X-178376Y-34500D02*
D03*
X-173376D02*
D03*
X-168376D02*
D03*
X-163376D02*
D03*
X-158376D02*
D03*
X-153376D02*
D03*
X-148376D02*
D03*
X-143376D02*
D03*
X-138376D02*
D03*
X-133376D02*
D03*
X-128376D02*
D03*
X-123376D02*
D03*
Y34500D02*
D03*
X-128376D02*
D03*
X-133376D02*
D03*
X-153376D02*
D03*
X-158376D02*
D03*
X-163376D02*
D03*
X-168376D02*
D03*
X-173376D02*
D03*
X-178376D02*
D03*
D75*
X-261366Y72460D02*
D03*
Y49460D02*
D03*
D76*
X-198654Y-15101D02*
D03*
X-211876Y-32475D02*
D03*
X-199376D02*
D03*
X-211154Y-15101D02*
D03*
D77*
X-150876Y-0D02*
D03*
D78*
X-185376Y27500D02*
D03*
Y22500D02*
D03*
Y17500D02*
D03*
Y12500D02*
D03*
Y7500D02*
D03*
Y2500D02*
D03*
Y-2500D02*
D03*
Y-7500D02*
D03*
Y-12500D02*
D03*
Y-17500D02*
D03*
Y-22500D02*
D03*
Y-27500D02*
D03*
X-116376D02*
D03*
Y-22500D02*
D03*
Y-17500D02*
D03*
Y-12500D02*
D03*
Y-7500D02*
D03*
Y-2500D02*
D03*
Y2500D02*
D03*
Y7500D02*
D03*
Y12500D02*
D03*
Y17500D02*
D03*
Y22500D02*
D03*
Y27500D02*
D03*
D79*
X-218186Y70231D02*
D03*
Y51689D02*
D03*
X-196596D02*
D03*
Y70231D02*
D03*
D80*
X-248046Y52070D02*
D03*
X-234046D02*
D03*
M02*
