G04*
G04 #@! TF.GenerationSoftware,Altium Limited,Altium Designer,25.8.1 (18)*
G04*
G04 Layer_Color=2752767*
%FSLAX44Y44*%
%MOMM*%
G71*
G04*
G04 #@! TF.SameCoordinates,1DE417C5-642A-4503-87AC-C91C357E1F8F*
G04*
G04*
G04 #@! TF.FilePolarity,Positive*
G04*
G01*
G75*
%ADD12C,0.1270*%
%ADD88C,0.1693*%
D12*
X-134258Y-98083D02*
Y-87923D01*
X-124099D01*
Y-98083D01*
X-134258D01*
X-159658D02*
Y-87923D01*
X-149499D01*
Y-98083D01*
X-159658D01*
X-185058D02*
Y-87923D01*
X-174898D01*
Y-98083D01*
X-185058D01*
X-237741Y-3579D02*
X-242821Y6581D01*
X-232661D01*
X-237741Y-3579D01*
X-239941Y17874D02*
X-245021Y28034D01*
X-234861D01*
X-239941Y17874D01*
X-255344Y18424D02*
X-260424Y28584D01*
X-250264D01*
X-255344Y18424D01*
X-235816Y-35484D02*
X-240896Y-25324D01*
X-230735D01*
X-235816Y-35484D01*
X170325Y26846D02*
X165245Y37006D01*
X175405D01*
X170325Y26846D01*
X35814Y-66803D02*
X30734Y-56643D01*
X40894D01*
X35814Y-66803D01*
X42527Y-96269D02*
X37447Y-86109D01*
X47607D01*
X42527Y-96269D01*
X48948Y-110481D02*
X43868Y-100321D01*
X54028D01*
X48948Y-110481D01*
X49678Y-81692D02*
X44598Y-71532D01*
X54758D01*
X49678Y-81692D01*
X29716Y-87735D02*
X24636Y-77575D01*
X34796D01*
X29716Y-87735D01*
X96666Y-138031D02*
X91586Y-127871D01*
X101746D01*
X96666Y-138031D01*
X198420Y-130130D02*
X193340Y-119970D01*
X203500D01*
X198420Y-130130D01*
X213609Y-128890D02*
X208529Y-118730D01*
X218689D01*
X213609Y-128890D01*
X189400Y-68215D02*
X184320Y-58054D01*
X194480D01*
X189400Y-68215D01*
X247985Y-73440D02*
X242905Y-63280D01*
X253065D01*
X247985Y-73440D01*
X268888Y72608D02*
X263808Y82768D01*
X273968D01*
X268888Y72608D01*
X268083Y87716D02*
X263003Y97876D01*
X273163D01*
X268083Y87716D01*
X-95768Y63963D02*
X-100848Y74123D01*
X-90688D01*
X-95768Y63963D01*
X-48260Y-43181D02*
X-53340Y-33021D01*
X-43180D01*
X-48260Y-43181D01*
X157988Y87629D02*
X152908Y97789D01*
X163068D01*
X157988Y87629D01*
X163068Y114553D02*
X157988Y124713D01*
X168148D01*
X163068Y114553D01*
X147828Y108965D02*
X142748Y119125D01*
X152908D01*
X147828Y108965D01*
X103156Y-40323D02*
X98076Y-30163D01*
X108236D01*
X103156Y-40323D01*
X95758Y110489D02*
X90678Y120649D01*
X100838D01*
X95758Y110489D01*
X103124Y23113D02*
X98044Y33273D01*
X108204D01*
X103124Y23113D01*
X138176Y70357D02*
X133096Y80517D01*
X143256D01*
X138176Y70357D01*
X12954Y27177D02*
X7874Y37337D01*
X18034D01*
X12954Y27177D01*
X-11938Y32819D02*
X-17018Y42979D01*
X-6858D01*
X-11938Y32819D01*
X197358Y-14225D02*
X192278Y-4065D01*
X202438D01*
X197358Y-14225D01*
X171704Y131825D02*
X166624Y141985D01*
X176784D01*
X171704Y131825D01*
X-209296Y-53849D02*
X-214376Y-43689D01*
X-204216D01*
X-209296Y-53849D01*
X-234950Y-79503D02*
X-240030Y-69343D01*
X-229870D01*
X-234950Y-79503D01*
D88*
X237199Y33110D02*
G03*
X237199Y33110I-5080J0D01*
G01*
Y-24690D02*
G03*
X237199Y-24690I-5080J0D01*
G01*
M02*
