G04*
G04 #@! TF.GenerationSoftware,Altium Limited,Altium Designer,25.8.1 (18)*
G04*
G04 Layer_Color=128*
%FSLAX44Y44*%
%MOMM*%
G71*
G04*
G04 #@! TF.SameCoordinates,1DE417C5-642A-4503-87AC-C91C357E1F8F*
G04*
G04*
G04 #@! TF.FilePolarity,Positive*
G04*
G01*
G75*
%ADD12C,0.1270*%
D12*
X228869Y33110D02*
X235369D01*
X232119Y29860D02*
Y36360D01*
X228869Y-24690D02*
X235369D01*
X232119Y-27940D02*
Y-21440D01*
X-134278Y-93003D02*
X-124079D01*
X-129178Y-98103D02*
Y-87903D01*
X-159678Y-93003D02*
X-149479D01*
X-154579Y-98103D02*
Y-87903D01*
X-185079Y-93003D02*
X-174879D01*
X-179979Y-98103D02*
Y-87903D01*
X-241297Y1501D02*
X-234185D01*
X-237741Y-2055D02*
Y5057D01*
X-243497Y22954D02*
X-236385D01*
X-239941Y19398D02*
Y26510D01*
X-258900Y23504D02*
X-251788D01*
X-255344Y19948D02*
Y27060D01*
X-239371Y-30404D02*
X-232260D01*
X-235816Y-33960D02*
Y-26848D01*
X166769Y31926D02*
X173881D01*
X170325Y28370D02*
Y35482D01*
X32258Y-61723D02*
X39370D01*
X35814Y-65279D02*
Y-58167D01*
X38971Y-91189D02*
X46083D01*
X42527Y-94745D02*
Y-87633D01*
X45392Y-105401D02*
X52503D01*
X48948Y-108957D02*
Y-101845D01*
X46122Y-76612D02*
X53234D01*
X49678Y-80168D02*
Y-73056D01*
X26160Y-82655D02*
X33272D01*
X29716Y-86211D02*
Y-79099D01*
X93110Y-132951D02*
X100222D01*
X96666Y-136507D02*
Y-129395D01*
X194864Y-125050D02*
X201976D01*
X198420Y-128606D02*
Y-121494D01*
X210053Y-123810D02*
X217165D01*
X213609Y-127366D02*
Y-120254D01*
X185844Y-63134D02*
X192956D01*
X189400Y-66691D02*
Y-59578D01*
X244429Y-68360D02*
X251541D01*
X247985Y-71916D02*
Y-64804D01*
X265332Y77688D02*
X272444D01*
X268888Y74132D02*
Y81244D01*
X264527Y92796D02*
X271639D01*
X268083Y89240D02*
Y96352D01*
X-99324Y69043D02*
X-92212D01*
X-95768Y65487D02*
Y72599D01*
X-51816Y-38101D02*
X-44704D01*
X-48260Y-41657D02*
Y-34545D01*
X154432Y92709D02*
X161544D01*
X157988Y89153D02*
Y96265D01*
X159512Y119633D02*
X166624D01*
X163068Y116077D02*
Y123189D01*
X144272Y114045D02*
X151384D01*
X147828Y110489D02*
Y117601D01*
X99600Y-35243D02*
X106712D01*
X103156Y-38799D02*
Y-31687D01*
X92202Y115569D02*
X99314D01*
X95758Y112013D02*
Y119125D01*
X99568Y28193D02*
X106680D01*
X103124Y24637D02*
Y31749D01*
X134620Y75437D02*
X141732D01*
X138176Y71881D02*
Y78993D01*
X9398Y32257D02*
X16510D01*
X12954Y28701D02*
Y35813D01*
X-15494Y37899D02*
X-8382D01*
X-11938Y34343D02*
Y41455D01*
X193802Y-9145D02*
X200914D01*
X197358Y-12701D02*
Y-5589D01*
X168148Y136905D02*
X175260D01*
X171704Y133349D02*
Y140461D01*
X-212852Y-48769D02*
X-205740D01*
X-209296Y-52325D02*
Y-45213D01*
X-238506Y-74423D02*
X-231394D01*
X-234950Y-77979D02*
Y-70867D01*
M02*
