G04*
G04 #@! TF.GenerationSoftware,Altium Limited,Altium Designer,25.8.1 (18)*
G04*
G04 Layer_Color=128*
%FSLAX44Y44*%
%MOMM*%
G71*
G04*
G04 #@! TF.SameCoordinates,1DE417C5-642A-4503-87AC-C91C357E1F8F*
G04*
G04*
G04 #@! TF.FilePolarity,Positive*
G04*
G01*
G75*
G04:AMPARAMS|DCode=22|XSize=1mm|YSize=1mm|CornerRadius=0.5mm|HoleSize=0mm|Usage=FLASHONLY|Rotation=30.000|XOffset=0mm|YOffset=0mm|HoleType=Round|Shape=RoundedRectangle|*
%AMROUNDEDRECTD22*
21,1,1.0000,0.0000,0,0,30.0*
21,1,0.0000,1.0000,0,0,30.0*
1,1,1.0000,0.0000,0.0000*
1,1,1.0000,0.0000,0.0000*
1,1,1.0000,0.0000,0.0000*
1,1,1.0000,0.0000,0.0000*
%
%ADD22ROUNDEDRECTD22*%
G04:AMPARAMS|DCode=24|XSize=1mm|YSize=1mm|CornerRadius=0.5mm|HoleSize=0mm|Usage=FLASHONLY|Rotation=90.000|XOffset=0mm|YOffset=0mm|HoleType=Round|Shape=RoundedRectangle|*
%AMROUNDEDRECTD24*
21,1,1.0000,0.0000,0,0,90.0*
21,1,0.0000,1.0000,0,0,90.0*
1,1,1.0000,0.0000,0.0000*
1,1,1.0000,0.0000,0.0000*
1,1,1.0000,0.0000,0.0000*
1,1,1.0000,0.0000,0.0000*
%
%ADD24ROUNDEDRECTD24*%
G04:AMPARAMS|DCode=26|XSize=1mm|YSize=1mm|CornerRadius=0.5mm|HoleSize=0mm|Usage=FLASHONLY|Rotation=330.000|XOffset=0mm|YOffset=0mm|HoleType=Round|Shape=RoundedRectangle|*
%AMROUNDEDRECTD26*
21,1,1.0000,0.0000,0,0,330.0*
21,1,0.0000,1.0000,0,0,330.0*
1,1,1.0000,0.0000,0.0000*
1,1,1.0000,0.0000,0.0000*
1,1,1.0000,0.0000,0.0000*
1,1,1.0000,0.0000,0.0000*
%
%ADD26ROUNDEDRECTD26*%
%ADD47R,0.8900X0.6400*%
%ADD72R,1.0061X0.9582*%
%ADD73R,0.4001X1.9000*%
%ADD74R,0.3000X0.8500*%
%ADD75R,0.5000X0.9000*%
%ADD76R,0.8000X0.9500*%
%ADD77R,5.7000X5.7000*%
%ADD78R,0.8500X0.3000*%
%ADD79R,1.3970X1.0922*%
%ADD80R,0.6000X0.8000*%
D22*
X-152400Y165199D02*
D03*
Y-165199D02*
D03*
X147599Y165199D02*
D03*
Y-165199D02*
D03*
X-223901Y-123901D02*
D03*
X-80899Y123901D02*
D03*
D24*
X290700Y-82601D02*
D03*
X-295468Y82601D02*
D03*
X-1679Y77521D02*
D03*
Y-77521D02*
D03*
X-80899Y-123901D02*
D03*
X-223901Y123901D02*
D03*
D26*
X290700Y82601D02*
D03*
X-295468Y-82601D02*
D03*
X-295501Y-0D02*
D03*
D47*
X-167537Y50056D02*
D03*
Y64056D02*
D03*
X-180237Y50056D02*
D03*
Y64056D02*
D03*
D72*
X-212654Y3286D02*
D03*
X-212986Y23851D02*
D03*
X-198633Y3286D02*
D03*
X-198965Y23851D02*
D03*
D73*
X-152715Y59690D02*
D03*
X-140716D02*
D03*
X-128717D02*
D03*
D74*
X-143376Y34500D02*
D03*
X-138376D02*
D03*
X-148376D02*
D03*
X-178376Y-34500D02*
D03*
X-173376D02*
D03*
X-168376D02*
D03*
X-163376D02*
D03*
X-158376D02*
D03*
X-153376D02*
D03*
X-148376D02*
D03*
X-143376D02*
D03*
X-138376D02*
D03*
X-133376D02*
D03*
X-128376D02*
D03*
X-123376D02*
D03*
Y34500D02*
D03*
X-128376D02*
D03*
X-133376D02*
D03*
X-153376D02*
D03*
X-158376D02*
D03*
X-163376D02*
D03*
X-168376D02*
D03*
X-173376D02*
D03*
X-178376D02*
D03*
D75*
X-261366Y72460D02*
D03*
Y49460D02*
D03*
D76*
X-198654Y-15101D02*
D03*
X-211876Y-32475D02*
D03*
X-199376D02*
D03*
X-211154Y-15101D02*
D03*
D77*
X-150876Y-0D02*
D03*
D78*
X-185376Y27500D02*
D03*
Y22500D02*
D03*
Y17500D02*
D03*
Y12500D02*
D03*
Y7500D02*
D03*
Y2500D02*
D03*
Y-2500D02*
D03*
Y-7500D02*
D03*
Y-12500D02*
D03*
Y-17500D02*
D03*
Y-22500D02*
D03*
Y-27500D02*
D03*
X-116376D02*
D03*
Y-22500D02*
D03*
Y-17500D02*
D03*
Y-12500D02*
D03*
Y-7500D02*
D03*
Y-2500D02*
D03*
Y2500D02*
D03*
Y7500D02*
D03*
Y12500D02*
D03*
Y17500D02*
D03*
Y22500D02*
D03*
Y27500D02*
D03*
D79*
X-218186Y70231D02*
D03*
Y51689D02*
D03*
X-196596D02*
D03*
Y70231D02*
D03*
D80*
X-248046Y52070D02*
D03*
X-234046D02*
D03*
M02*
