G04*
G04 #@! TF.GenerationSoftware,Altium Limited,Altium Designer,25.8.1 (18)*
G04*
G04 Layer_Physical_Order=1*
G04 Layer_Color=255*
%FSLAX44Y44*%
%MOMM*%
G71*
G04*
G04 #@! TF.SameCoordinates,1DE417C5-642A-4503-87AC-C91C357E1F8F*
G04*
G04*
G04 #@! TF.FilePolarity,Positive*
G04*
G01*
G75*
%ADD15C,0.2540*%
%ADD18R,2.0500X1.1000*%
%ADD19R,0.2500X0.6000*%
%ADD20R,0.6000X0.2500*%
%ADD21R,2.7000X2.7000*%
G04:AMPARAMS|DCode=22|XSize=1mm|YSize=1mm|CornerRadius=0.5mm|HoleSize=0mm|Usage=FLASHONLY|Rotation=30.000|XOffset=0mm|YOffset=0mm|HoleType=Round|Shape=RoundedRectangle|*
%AMROUNDEDRECTD22*
21,1,1.0000,0.0000,0,0,30.0*
21,1,0.0000,1.0000,0,0,30.0*
1,1,1.0000,0.0000,0.0000*
1,1,1.0000,0.0000,0.0000*
1,1,1.0000,0.0000,0.0000*
1,1,1.0000,0.0000,0.0000*
%
%ADD22ROUNDEDRECTD22*%
%ADD23R,1.0500X1.0000*%
G04:AMPARAMS|DCode=24|XSize=1mm|YSize=1mm|CornerRadius=0.5mm|HoleSize=0mm|Usage=FLASHONLY|Rotation=90.000|XOffset=0mm|YOffset=0mm|HoleType=Round|Shape=RoundedRectangle|*
%AMROUNDEDRECTD24*
21,1,1.0000,0.0000,0,0,90.0*
21,1,0.0000,1.0000,0,0,90.0*
1,1,1.0000,0.0000,0.0000*
1,1,1.0000,0.0000,0.0000*
1,1,1.0000,0.0000,0.0000*
1,1,1.0000,0.0000,0.0000*
%
%ADD24ROUNDEDRECTD24*%
%ADD25R,1.0500X0.9500*%
G04:AMPARAMS|DCode=26|XSize=1mm|YSize=1mm|CornerRadius=0.5mm|HoleSize=0mm|Usage=FLASHONLY|Rotation=330.000|XOffset=0mm|YOffset=0mm|HoleType=Round|Shape=RoundedRectangle|*
%AMROUNDEDRECTD26*
21,1,1.0000,0.0000,0,0,330.0*
21,1,0.0000,1.0000,0,0,330.0*
1,1,1.0000,0.0000,0.0000*
1,1,1.0000,0.0000,0.0000*
1,1,1.0000,0.0000,0.0000*
1,1,1.0000,0.0000,0.0000*
%
%ADD26ROUNDEDRECTD26*%
%ADD27R,1.7500X2.6500*%
%ADD28R,1.0000X5.5000*%
%ADD29R,1.6000X3.0000*%
%ADD30R,0.8500X0.7500*%
%ADD31R,2.3000X5.6000*%
%ADD32R,0.8000X0.9000*%
%ADD33R,2.1000X1.2700*%
%ADD34R,3.4300X1.7800*%
%ADD35R,0.5153X0.4725*%
G04:AMPARAMS|DCode=36|XSize=0.67mm|YSize=0.3mm|CornerRadius=0.0495mm|HoleSize=0mm|Usage=FLASHONLY|Rotation=0.000|XOffset=0mm|YOffset=0mm|HoleType=Round|Shape=RoundedRectangle|*
%AMROUNDEDRECTD36*
21,1,0.6700,0.2010,0,0,0.0*
21,1,0.5710,0.3000,0,0,0.0*
1,1,0.0990,0.2855,-0.1005*
1,1,0.0990,-0.2855,-0.1005*
1,1,0.0990,-0.2855,0.1005*
1,1,0.0990,0.2855,0.1005*
%
%ADD36ROUNDEDRECTD36*%
G04:AMPARAMS|DCode=37|XSize=0.3mm|YSize=0.3mm|CornerRadius=0.0495mm|HoleSize=0mm|Usage=FLASHONLY|Rotation=270.000|XOffset=0mm|YOffset=0mm|HoleType=Round|Shape=RoundedRectangle|*
%AMROUNDEDRECTD37*
21,1,0.3000,0.2010,0,0,270.0*
21,1,0.2010,0.3000,0,0,270.0*
1,1,0.0990,-0.1005,-0.1005*
1,1,0.0990,-0.1005,0.1005*
1,1,0.0990,0.1005,0.1005*
1,1,0.0990,0.1005,-0.1005*
%
%ADD37ROUNDEDRECTD37*%
%ADD38R,0.9000X0.8000*%
%ADD39R,0.9500X1.0500*%
%ADD40R,1.5000X1.4000*%
%ADD41R,0.2393X0.8291*%
G04:AMPARAMS|DCode=42|XSize=0.8291mm|YSize=0.2393mm|CornerRadius=0.1196mm|HoleSize=0mm|Usage=FLASHONLY|Rotation=270.000|XOffset=0mm|YOffset=0mm|HoleType=Round|Shape=RoundedRectangle|*
%AMROUNDEDRECTD42*
21,1,0.8291,0.0000,0,0,270.0*
21,1,0.5898,0.2393,0,0,270.0*
1,1,0.2393,0.0000,-0.2949*
1,1,0.2393,0.0000,0.2949*
1,1,0.2393,0.0000,0.2949*
1,1,0.2393,0.0000,-0.2949*
%
%ADD42ROUNDEDRECTD42*%
G04:AMPARAMS|DCode=43|XSize=0.2393mm|YSize=0.8291mm|CornerRadius=0.1196mm|HoleSize=0mm|Usage=FLASHONLY|Rotation=270.000|XOffset=0mm|YOffset=0mm|HoleType=Round|Shape=RoundedRectangle|*
%AMROUNDEDRECTD43*
21,1,0.2393,0.5898,0,0,270.0*
21,1,0.0000,0.8291,0,0,270.0*
1,1,0.2393,-0.2949,0.0000*
1,1,0.2393,-0.2949,0.0000*
1,1,0.2393,0.2949,0.0000*
1,1,0.2393,0.2949,0.0000*
%
%ADD43ROUNDEDRECTD43*%
%ADD44R,1.4562X1.2546*%
%ADD45R,0.8121X0.6587*%
%ADD46R,0.7000X1.3000*%
%ADD47R,0.8900X0.6400*%
%ADD48R,0.6587X0.8121*%
%ADD49R,1.1500X0.3000*%
%ADD50R,1.1500X0.6000*%
%ADD51R,2.0000X2.1800*%
%ADD52R,3.4000X0.9800*%
%ADD53R,0.9500X0.8000*%
%ADD54R,0.8000X0.8000*%
%ADD64R,2.8000X2.8000*%
%ADD67C,0.6500*%
%ADD68C,1.5700*%
%ADD69R,1.5700X1.5700*%
%ADD71C,1.2700*%
G36*
X163910Y164387D02*
X163116Y162923D01*
X161034Y160324D01*
X158522Y158138D01*
X155660Y156435D01*
X152541Y155268D01*
X149264Y154675D01*
X145934D01*
X142657Y155268D01*
X139538Y156435D01*
X136677Y158138D01*
X134165Y160324D01*
X132082Y162923D01*
X131289Y164387D01*
X131289Y164387D01*
X147599Y173778D01*
X163910Y164387D01*
D02*
G37*
G36*
X-136089D02*
X-136883Y162923D01*
X-138966Y160324D01*
X-141478Y158138D01*
X-144339Y156435D01*
X-147458Y155268D01*
X-150735Y154675D01*
X-154065D01*
X-157342Y155268D01*
X-160461Y156435D01*
X-163322Y158138D01*
X-165834Y160324D01*
X-167917Y162923D01*
X-168711Y164387D01*
X-168710Y164387D01*
X-152400Y173778D01*
X-136089Y164387D01*
D02*
G37*
G36*
X-53382Y116601D02*
X-54443Y114685D01*
X-57145Y111236D01*
X-60359Y108258D01*
X-64004Y105827D01*
X-67987Y104003D01*
X-72209Y102831D01*
X-76563Y102343D01*
X-80940Y102550D01*
X-85228Y103447D01*
X-89321Y105010D01*
X-93115Y107202D01*
X-96514Y109967D01*
X-99432Y113234D01*
X-101798Y116923D01*
X-103549Y120939D01*
X-104643Y125181D01*
X-105052Y129543D01*
X-104766Y133915D01*
X-103791Y138187D01*
X-102153Y142250D01*
X-101023Y144127D01*
X-101023D01*
X-53382Y116601D01*
D02*
G37*
G36*
X-202692Y142205D02*
X-201056Y138140D01*
X-200084Y133868D01*
X-199801Y129496D01*
X-200212Y125134D01*
X-201309Y120892D01*
X-203063Y116877D01*
X-205431Y113190D01*
X-208351Y109925D01*
X-211752Y107162D01*
X-215547Y104973D01*
X-219641Y103411D01*
X-223930Y102517D01*
X-228307Y102313D01*
X-232660Y102804D01*
X-236882Y103978D01*
X-240864Y105805D01*
X-244507Y108239D01*
X-247719Y111219D01*
X-250419Y114669D01*
X-251479Y116586D01*
X-251479Y116586D01*
X-203821Y144082D01*
X-202692Y142205D01*
D02*
G37*
G36*
X298130Y86890D02*
X298152Y68069D01*
X296488Y68025D01*
X293196Y68529D01*
X290047Y69612D01*
X287141Y71238D01*
X284571Y73355D01*
X282419Y75897D01*
X280753Y78781D01*
X279629Y81915D01*
X279080Y85200D01*
X279125Y88529D01*
X279762Y91798D01*
X280971Y94901D01*
X281842Y96320D01*
X281842D01*
X298130Y86890D01*
D02*
G37*
G36*
X-285738Y94901D02*
X-284529Y91798D01*
X-283892Y88529D01*
X-283847Y85200D01*
X-284396Y81915D01*
X-285521Y78781D01*
X-287186Y75897D01*
X-289338Y73355D01*
X-291908Y71238D01*
X-294814Y69612D01*
X-297964Y68529D01*
X-301255Y68025D01*
X-302920Y68069D01*
Y68069D01*
X-302897Y86890D01*
X-286609Y96320D01*
X-285738Y94901D01*
D02*
G37*
G36*
X-2400Y87176D02*
X14278Y96781D01*
X15189Y95288D01*
X16452Y92025D01*
X17114Y88590D01*
X17155Y85092D01*
X16573Y81642D01*
X15387Y78351D01*
X13634Y75323D01*
X11371Y72655D01*
X8669Y70432D01*
X5615Y68726D01*
X2306Y67589D01*
X-1152Y67059D01*
X-2400Y67093D01*
X-3649Y67059D01*
X-7107Y67589D01*
X-10416Y68726D01*
X-13470Y70432D01*
X-16171Y72655D01*
X-18435Y75323D01*
X-20187Y78351D01*
X-21374Y81642D01*
X-21956Y85092D01*
X-21915Y88590D01*
X-21253Y92025D01*
X-19990Y95288D01*
X-19079Y96781D01*
Y96781D01*
X-2400Y87176D01*
D02*
G37*
G36*
X-296410Y26904D02*
X-292224Y25609D01*
X-288296Y23669D01*
X-284724Y21131D01*
X-281599Y18060D01*
X-278999Y14534D01*
X-276990Y10640D01*
X-275622Y6478D01*
X-274930Y2152D01*
X-274932Y-2230D01*
X-275626Y-6556D01*
X-276997Y-10717D01*
X-279008Y-14609D01*
X-281610Y-18134D01*
X-284737Y-21203D01*
X-288311Y-23738D01*
X-292240Y-25676D01*
X-296427Y-26968D01*
X-300765Y-27581D01*
X-302955Y-27541D01*
Y-27541D01*
X-302938Y27480D01*
X-300748Y27520D01*
X-296410Y26904D01*
D02*
G37*
G36*
X2306Y-67589D02*
X5615Y-68726D01*
X8669Y-70432D01*
X11371Y-72655D01*
X13634Y-75323D01*
X15387Y-78351D01*
X16573Y-81642D01*
X17155Y-85092D01*
X17114Y-88590D01*
X16452Y-92025D01*
X15189Y-95288D01*
X14278Y-96781D01*
X-2400Y-87176D01*
X-19079Y-96781D01*
X-19990Y-95288D01*
X-21253Y-92025D01*
X-21915Y-88590D01*
X-21956Y-85092D01*
X-21374Y-81642D01*
X-20187Y-78351D01*
X-18435Y-75323D01*
X-16171Y-72655D01*
X-13470Y-70432D01*
X-10416Y-68726D01*
X-7107Y-67589D01*
X-3649Y-67059D01*
X-2400Y-67093D01*
X-1152Y-67059D01*
X2306Y-67589D01*
D02*
G37*
G36*
X298152Y-68069D02*
X298152Y-68069D01*
X298130Y-86890D01*
X281842Y-96320D01*
X280971Y-94901D01*
X279762Y-91798D01*
X279125Y-88529D01*
X279080Y-85200D01*
X279629Y-81915D01*
X280753Y-78781D01*
X282419Y-75897D01*
X284571Y-73355D01*
X287141Y-71238D01*
X290047Y-69612D01*
X293196Y-68529D01*
X296488Y-68025D01*
X298152Y-68069D01*
D02*
G37*
G36*
X-297964Y-68529D02*
X-294814Y-69612D01*
X-291908Y-71238D01*
X-289338Y-73355D01*
X-287186Y-75897D01*
X-285521Y-78781D01*
X-284396Y-81915D01*
X-283847Y-85200D01*
X-283892Y-88529D01*
X-284529Y-91798D01*
X-285738Y-94901D01*
X-286609Y-96320D01*
X-286609Y-96320D01*
X-302897Y-86890D01*
X-302920Y-68069D01*
X-301255Y-68025D01*
X-297964Y-68529D01*
D02*
G37*
G36*
X14278Y-96781D02*
X14278D01*
D01*
X14278D01*
D02*
G37*
G36*
X-72140Y-102804D02*
X-67918Y-103978D01*
X-63936Y-105805D01*
X-60293Y-108239D01*
X-57081Y-111219D01*
X-54381Y-114669D01*
X-53321Y-116586D01*
X-100979Y-144082D01*
X-102108Y-142205D01*
X-103744Y-138140D01*
X-104716Y-133868D01*
X-105000Y-129496D01*
X-104588Y-125134D01*
X-103491Y-120892D01*
X-101737Y-116877D01*
X-99369Y-113190D01*
X-96449Y-109925D01*
X-93048Y-107162D01*
X-89253Y-104973D01*
X-85159Y-103411D01*
X-80870Y-102517D01*
X-76493Y-102313D01*
X-72140Y-102804D01*
D02*
G37*
G36*
X-223860Y-102550D02*
X-219572Y-103447D01*
X-215479Y-105011D01*
X-211685Y-107202D01*
X-208286Y-109967D01*
X-205368Y-113234D01*
X-203002Y-116923D01*
X-201251Y-120939D01*
X-200157Y-125181D01*
X-199748Y-129543D01*
X-200034Y-133915D01*
X-201009Y-138187D01*
X-202647Y-142250D01*
X-203777Y-144127D01*
Y-144127D01*
X-251418Y-116601D01*
X-250357Y-114685D01*
X-247655Y-111236D01*
X-244441Y-108259D01*
X-240796Y-105827D01*
X-236813Y-104003D01*
X-232591Y-102831D01*
X-228237Y-102343D01*
X-223860Y-102550D01*
D02*
G37*
G36*
X152541Y-155268D02*
X155660Y-156435D01*
X158522Y-158139D01*
X161034Y-160324D01*
X163116Y-162923D01*
X163910Y-164387D01*
X147599Y-173778D01*
X131289Y-164387D01*
X132082Y-162923D01*
X134165Y-160324D01*
X136677Y-158139D01*
X139538Y-156435D01*
X142657Y-155268D01*
X145934Y-154675D01*
X149264D01*
X152541Y-155268D01*
D02*
G37*
G36*
X-147458D02*
X-144339Y-156435D01*
X-141478Y-158139D01*
X-138966Y-160324D01*
X-136883Y-162923D01*
X-136089Y-164387D01*
X-152400Y-173778D01*
X-168711Y-164387D01*
X-167917Y-162923D01*
X-165834Y-160324D01*
X-163322Y-158139D01*
X-160461Y-156435D01*
X-157342Y-155268D01*
X-154065Y-154675D01*
X-150735D01*
X-147458Y-155268D01*
D02*
G37*
D15*
X-239941Y22954D02*
X-200684Y62211D01*
X-190264D01*
X-255344Y-10876D02*
X-235816Y-30404D01*
X-255344Y-10876D02*
Y23504D01*
X-237741Y1501D02*
X-200679Y38562D01*
X-187243D01*
X-190264Y62211D02*
X-152400Y100075D01*
X-187243Y38562D02*
X-152400Y73405D01*
X173143Y31926D02*
Y58516D01*
Y29108D02*
Y31926D01*
Y9321D02*
Y29108D01*
X178054Y24196D02*
X189532D01*
X170325Y31926D02*
Y68579D01*
Y31926D02*
X173143Y29108D01*
X178054Y24196D01*
X29464Y-58343D02*
X37133Y-50675D01*
X190126Y73587D02*
X190706Y74167D01*
X23795Y-58343D02*
X29464D01*
X96666Y-132951D02*
X98384Y-134670D01*
X38328Y-41175D02*
X63078D01*
X33020Y-46483D02*
X38328Y-41175D01*
X32434Y-58343D02*
X35814Y-61723D01*
X37133Y-50675D02*
X43078D01*
X190706Y74167D02*
X216408D01*
X175913D02*
X190706D01*
X188214Y73587D02*
X190126D01*
X29464Y-58343D02*
X32434D01*
X170325Y68579D02*
X175913Y74167D01*
X173143Y58516D02*
X188214Y73587D01*
X15494Y-46483D02*
X33020D01*
X98384Y-134670D02*
Y-134670D01*
X42527Y-88440D02*
X47734Y-83233D01*
X31854Y-82655D02*
X40389Y-91189D01*
X51262Y-77777D02*
X54019D01*
X42527Y-89270D02*
Y-88440D01*
Y-91189D02*
Y-89270D01*
X47734Y-83233D02*
Y-81305D01*
X29716Y-82655D02*
X31854D01*
X42527Y-88440D02*
X47734Y-83233D01*
X52427Y-76612D02*
X52435D01*
X40389Y-91189D02*
X42527D01*
Y-89270D02*
Y-88440D01*
X47734Y-83233D02*
Y-81305D01*
X51262Y-77777D01*
X47734Y-81305D02*
X52427Y-76612D01*
X54019D02*
Y-76553D01*
X52435Y-76612D02*
X54019D01*
X48948Y-105401D02*
X77152D01*
X77687Y-104866D01*
X53228Y-75820D02*
X55626Y-73421D01*
X52435Y-76612D02*
X53228Y-75820D01*
X49678Y-76612D02*
X52435D01*
X7733Y-72505D02*
X49678D01*
X54371Y-76201D02*
X55626D01*
X49678Y-72505D02*
X55626D01*
X54019Y-76553D02*
X54371Y-76201D01*
X55626Y-73421D02*
Y-72505D01*
X219161Y-38931D02*
X227120Y-46890D01*
X174734Y-49906D02*
X185709Y-38931D01*
X219161D01*
X185709D02*
X196850Y-27790D01*
X199804Y-69687D02*
X214454D01*
X191344Y-65079D02*
X195195D01*
X189400Y-63134D02*
X191344Y-65079D01*
X195195D02*
X199804Y-69687D01*
X214454D02*
X219276Y-74509D01*
X102151Y-141083D02*
X124909D01*
X125340Y-140652D01*
X133800Y-127804D01*
X137530Y-101574D01*
X98384Y-134670D02*
X99872Y-133182D01*
X106800D01*
X113530Y-124074D01*
X97333Y-137825D02*
Y-135721D01*
Y-137825D02*
X98821Y-139313D01*
X102151Y-141083D01*
X97333Y-135721D02*
X98384Y-134670D01*
X113530Y-124074D02*
Y-103371D01*
X160985Y-152212D02*
X181780D01*
X147998Y-165199D02*
X160985Y-152212D01*
X181780D02*
X193340Y-140652D01*
X147599Y-165199D02*
X147998D01*
X193340Y-132880D02*
X198420Y-127800D01*
X193340Y-140652D02*
Y-132880D01*
X213609Y-123810D02*
Y-110681D01*
X198420Y-127800D02*
Y-125050D01*
X213609Y-110681D02*
X218405Y-105886D01*
X169537Y-64875D02*
Y-57659D01*
Y-71748D02*
X191770Y-93981D01*
X169537Y-71748D02*
Y-64875D01*
X191770Y-105411D02*
Y-93981D01*
X226959Y98160D02*
X259970D01*
X181530Y-108967D02*
X188214D01*
X181530Y-124074D02*
Y-108967D01*
X188214D02*
X191770Y-105411D01*
X247985Y-68360D02*
X276460D01*
X290700Y-82601D01*
X268888Y57779D02*
Y77688D01*
X266419Y55310D02*
X268888Y57779D01*
X268486Y78091D02*
Y92394D01*
Y78091D02*
X268888Y77688D01*
X268083Y92796D02*
X268486Y92394D01*
X266419Y-46890D02*
Y55310D01*
X265334Y92796D02*
X268083D01*
X259970Y98160D02*
X265334Y92796D01*
X-95768Y66887D02*
Y69043D01*
X-89662Y35559D02*
Y60781D01*
X-95768Y66887D02*
X-89662Y60781D01*
X220980Y104139D02*
Y114080D01*
X190246Y60634D02*
Y63796D01*
Y48259D02*
Y60634D01*
X187453Y63427D02*
X190246Y60634D01*
X153565Y52187D02*
X160796D01*
X134130Y-32103D02*
X160054D01*
X126746Y-34416D02*
Y-25311D01*
Y-35695D02*
Y-34416D01*
X134130Y-32103D01*
X122664Y-35695D02*
X126746Y-34416D01*
X96012Y2031D02*
Y20319D01*
X54931Y80166D02*
Y80605D01*
X48169Y52164D02*
Y73405D01*
X44196Y49275D02*
X48169D01*
X38100Y43179D02*
X44196Y49275D01*
X33020Y38099D02*
X38100Y43179D01*
X29179Y38099D02*
X33020D01*
X-92207Y33014D02*
X-89662D01*
X-98154D02*
X-92207D01*
X96012Y20319D02*
X101885Y14446D01*
X92964Y23367D02*
X96012Y20319D01*
X12597Y-46483D02*
X15494D01*
X-152400Y73405D02*
Y100075D01*
Y24333D02*
Y73405D01*
X-46482Y-59281D02*
Y-38101D01*
Y9342D01*
X-259334Y-82601D02*
X-245057D01*
X216408Y74167D02*
Y81080D01*
X190706Y74167D02*
X192738Y76199D01*
X173143Y-15156D02*
Y9321D01*
X130556Y136651D02*
X150495Y116712D01*
X157734Y109473D01*
X116345Y114045D02*
Y126745D01*
Y136651D02*
X130556D01*
X94488D02*
X116345D01*
X84582Y126745D02*
X116345D01*
Y114045D02*
X147828D01*
X10414Y11684D02*
Y29717D01*
X29169Y52577D02*
Y69321D01*
Y52164D02*
Y52577D01*
X14732D02*
X29169D01*
X58406Y-73421D02*
X77289D01*
X55626D02*
X58406D01*
X55626Y-76201D02*
Y-73421D01*
Y-76201D02*
X58406Y-73421D01*
X-39317Y-17781D02*
X-35413D01*
X211582Y-19790D02*
X221369D01*
X208002D02*
X211582D01*
X171704Y136905D02*
X190345D01*
X134130Y-32103D02*
X145351Y-35296D01*
X170053Y-49906D02*
Y-38122D01*
X157666Y-25735D02*
X170053Y-38122D01*
X-48260Y-38101D02*
X-46482D01*
X-152400Y-165199D02*
X-62435Y-75234D01*
X-11938Y-77521D02*
X-1679D01*
X-21032Y-86615D02*
X-11938Y-77521D01*
X-51054Y-86615D02*
X-21032D01*
X-62435Y-75234D02*
X-51054Y-86615D01*
X-62435Y-75234D02*
X-46482Y-59281D01*
Y9342D02*
X-37030Y18795D01*
Y23388D01*
X-7723Y83565D02*
X-1679Y77521D01*
X-70766Y83565D02*
X-7723D01*
X-152400Y165199D02*
X-70766Y83565D01*
X153618Y60363D02*
Y77831D01*
X157988Y82201D01*
Y92709D01*
X147599Y135101D02*
X163068Y119633D01*
X147599Y135101D02*
Y165199D01*
X-152400Y100075D02*
Y165199D01*
X216408Y81080D02*
X221036D01*
X173143Y-15156D02*
X180848Y-22861D01*
X192738Y76199D02*
Y99059D01*
X184292Y104391D02*
Y111871D01*
X176530Y118109D02*
X178054D01*
X167894Y109473D02*
X176530Y118109D01*
X84582Y126745D02*
X94488Y136651D01*
X78994Y126745D02*
X84582D01*
X64262Y112013D02*
X78994Y126745D01*
X64262Y86923D02*
Y112013D01*
X168160Y4338D02*
X173143Y9321D01*
X188378Y103418D02*
X192738Y99059D01*
X185265Y103418D02*
X188378D01*
X184292Y104391D02*
X185265Y103418D01*
X178054Y118109D02*
X184292Y111871D01*
X157734Y109473D02*
X167894D01*
X64262Y86923D02*
X75508D01*
X116345Y108498D02*
Y114045D01*
X103156Y-35243D02*
Y-23617D01*
X58061Y10736D02*
X67989Y13798D01*
X-43982Y-76531D02*
X-35306D01*
X-24950Y-66174D01*
X1403D01*
X7733Y-72505D01*
X-135636Y-86546D02*
X-129178Y-93003D01*
X-135636Y-86546D02*
Y32400D01*
X227120Y38286D02*
Y55310D01*
X225044Y36210D02*
X227120Y38286D01*
X221369Y36210D02*
X225044D01*
X202295D02*
X221369D01*
X190246Y48259D02*
X202295Y36210D01*
X160796Y52187D02*
X164488Y55879D01*
Y78667D01*
X173228Y87407D01*
Y93979D01*
X164338Y102869D02*
X173228Y93979D01*
X151638Y102869D02*
X164338D01*
X147828Y99059D02*
X151638Y102869D01*
X147828Y92149D02*
Y99059D01*
X9295Y-58343D02*
Y-52682D01*
X15494Y-46483D01*
X92964Y31223D02*
X92989Y31249D01*
X94253Y272D02*
X96012Y2031D01*
X94253Y-12721D02*
Y272D01*
Y-12721D02*
X96774Y-15241D01*
X110998D01*
Y-21755D02*
Y-15241D01*
Y-21755D02*
X114554Y-25311D01*
X120947D01*
X133035Y-35695D02*
X133458Y-36118D01*
X126746Y-35695D02*
X133035D01*
X120132Y60187D02*
X132601D01*
X108204Y48259D02*
X120132Y60187D01*
X108204Y43179D02*
Y48259D01*
Y43179D02*
X111339Y40044D01*
X116497D01*
X92648Y115569D02*
X95758D01*
X80518Y103439D02*
X92648Y115569D01*
X75508Y103439D02*
X80518D01*
X100135Y31182D02*
Y38394D01*
Y31182D02*
X103124Y28193D01*
Y75437D02*
X138176D01*
X96495Y82065D02*
X103124Y75437D01*
X96495Y82065D02*
Y87333D01*
X10414Y29717D02*
X12954Y32257D01*
X10414Y11684D02*
X22424D01*
X5334Y-12016D02*
X22424D01*
X254Y-6936D02*
X5334Y-12016D01*
X254Y-6936D02*
Y38099D01*
X14732Y52577D01*
X-37030Y62991D02*
X-11938Y37899D01*
X-37030Y62991D02*
Y66387D01*
X197358Y-9145D02*
X208002Y-19790D01*
X190345Y108498D02*
Y136905D01*
X101885Y11118D02*
Y14446D01*
X92964Y23367D02*
Y31223D01*
X211582Y-19790D02*
Y25399D01*
X214393Y28210D01*
X221369D01*
X-295468Y-82601D02*
X-259334D01*
X-152400Y24333D01*
X-106426Y47014D02*
X-98154D01*
X-129178Y24261D02*
X-106426Y47014D01*
X-129178Y-93003D02*
Y24261D01*
X170053Y-49906D02*
X174734D01*
X196850Y-27790D02*
X221369D01*
X-234950Y-74423D02*
X-209296Y-48769D01*
X-225007Y-92592D02*
X-152400Y-165199D01*
X-235066Y-92592D02*
X-225007D01*
X-245057Y-82601D02*
X-235066Y-92592D01*
X-92207Y33014D02*
X-89662Y35559D01*
X49918Y-8264D02*
X58061D01*
X46736Y-5081D02*
X49918Y-8264D01*
X46736Y-5081D02*
Y19811D01*
X52324Y25399D01*
Y39532D01*
X48677Y43179D02*
X52324Y39532D01*
X38100Y43179D02*
X48677D01*
X120546Y-64665D02*
Y-53341D01*
X138590Y-35296D01*
X145351D01*
X63078Y-46315D02*
Y-41175D01*
Y-46315D02*
X76454Y-59691D01*
X98487D01*
Y-88328D02*
Y-59691D01*
Y-88328D02*
X113530Y-103371D01*
X67989Y13798D02*
Y31249D01*
Y13798D02*
X71120Y10667D01*
Y-19813D02*
Y10667D01*
Y-19813D02*
X105918Y-54611D01*
Y-71375D02*
Y-54611D01*
Y-71375D02*
X109474Y-74931D01*
X123952D01*
X128778Y-70105D01*
X149910D01*
X157530Y-77725D01*
Y-101574D02*
Y-77725D01*
X233466Y83660D02*
X248057D01*
X230886Y81080D02*
X233466Y83660D01*
X221036Y81080D02*
X230886D01*
X189532Y63796D02*
X190246D01*
X147574Y60363D02*
X153618D01*
X144526Y57316D02*
X147574Y60363D01*
X144526Y48259D02*
Y57316D01*
X141954Y45687D02*
X144526Y48259D01*
X132601Y45687D02*
X141954D01*
X123104Y31695D02*
Y38606D01*
X121666Y40044D02*
X123104Y38606D01*
X116497Y40044D02*
X121666D01*
X-87023Y-5180D02*
X-81026D01*
X-89662Y-2541D02*
X-87023Y-5180D01*
X-89662Y-2541D02*
Y33014D01*
X220980Y114080D02*
X221036D01*
X220980Y104139D02*
X226959Y98160D01*
X54931Y80605D02*
Y84466D01*
X47985Y73659D02*
X54931Y80605D01*
X47985Y70031D02*
Y73659D01*
X51788Y84466D02*
X54931D01*
X38608Y97647D02*
X51788Y84466D01*
X35806Y97647D02*
X38608D01*
X-25783Y-27051D02*
Y-22286D01*
Y-27051D02*
X-15598Y-37236D01*
X9295D01*
Y-43181D02*
Y-37236D01*
Y-43181D02*
X12597Y-46483D01*
X63078Y-41175D02*
Y-27433D01*
X58061Y-22416D02*
X63078Y-27433D01*
X58061Y-22416D02*
Y-8264D01*
X48169Y49275D02*
Y52164D01*
X29179Y32711D02*
Y38099D01*
X48169Y73405D02*
X54931Y80166D01*
X227120Y-46890D02*
X266419D01*
X227120Y55310D02*
X266419D01*
X170053Y-57143D02*
Y-49906D01*
X169537Y-57659D02*
X170053Y-57143D01*
X-98806Y-17660D02*
X-90170D01*
X-90150Y-17680D01*
X-81026D01*
X-71123Y23388D02*
X-37030D01*
X-295468Y-82601D02*
X-283464Y-70597D01*
Y70597D01*
X-295468Y82601D02*
X-283464Y70597D01*
X290700Y-82601D02*
Y82601D01*
X93829Y-23617D02*
X103156D01*
X87385Y-17173D02*
X93829Y-23617D01*
X87385Y-17173D02*
Y11118D01*
X22424Y-24031D02*
Y-12016D01*
Y-24031D02*
X23795Y-25401D01*
Y-37236D02*
Y-25401D01*
Y-37236D02*
X30480D01*
X36041Y-31674D01*
X43078D01*
X28985Y70031D02*
X29169Y69321D01*
X-38788Y-2891D02*
Y2614D01*
X-35306Y6095D01*
X-24384D01*
Y38353D01*
X-30226Y44195D02*
X-24384Y38353D01*
X-65786Y44195D02*
X-30226D01*
X-71123Y49531D02*
X-65786Y44195D01*
X-71123Y49531D02*
Y66387D01*
X-39317Y-22286D02*
Y-17781D01*
X-35413D02*
X-25253Y-7621D01*
Y-2891D01*
D18*
X221036Y81080D02*
D03*
Y114080D02*
D03*
D19*
X148104Y31695D02*
D03*
X143103D02*
D03*
X138104D02*
D03*
X133103D02*
D03*
X128103D02*
D03*
X123104D02*
D03*
Y-6305D02*
D03*
X128103D02*
D03*
X133103D02*
D03*
X138104D02*
D03*
X143103D02*
D03*
X148104D02*
D03*
D20*
X116604Y25195D02*
D03*
Y20194D02*
D03*
Y15195D02*
D03*
Y10194D02*
D03*
Y5195D02*
D03*
Y194D02*
D03*
X154604D02*
D03*
Y5195D02*
D03*
Y10194D02*
D03*
Y15195D02*
D03*
Y20194D02*
D03*
Y25195D02*
D03*
D21*
X135603Y12694D02*
D03*
D22*
X290700Y82601D02*
D03*
X-295468Y-82601D02*
D03*
X-223901Y-123901D02*
D03*
X-80899Y123901D02*
D03*
D23*
X153618Y60363D02*
D03*
Y46364D02*
D03*
D24*
X147599Y165199D02*
D03*
Y-165199D02*
D03*
X-1679Y77521D02*
D03*
X-152400Y165199D02*
D03*
X-1679Y-77521D02*
D03*
X-152400Y-165199D02*
D03*
X-80899Y-123901D02*
D03*
X-223901Y123901D02*
D03*
D25*
X132601Y45687D02*
D03*
Y60187D02*
D03*
X122664Y-35695D02*
D03*
Y-21195D02*
D03*
X145351Y-35296D02*
D03*
Y-20797D02*
D03*
X248057Y83660D02*
D03*
Y98160D02*
D03*
X54931Y84466D02*
D03*
Y98966D02*
D03*
X96495Y87333D02*
D03*
Y101833D02*
D03*
D26*
X290700Y-82601D02*
D03*
X-295468Y82601D02*
D03*
X-295501Y-0D02*
D03*
D27*
X-37030Y23388D02*
D03*
X-71123D02*
D03*
X-37030Y66387D02*
D03*
X-71123D02*
D03*
D28*
X157530Y-101574D02*
D03*
X137530D02*
D03*
D29*
X181530Y-124074D02*
D03*
X113530D02*
D03*
D30*
X116497Y40044D02*
D03*
Y52544D02*
D03*
D31*
X190345Y108498D02*
D03*
X116345D02*
D03*
D32*
X103156Y-23617D02*
D03*
Y-6617D02*
D03*
D33*
X189532Y24196D02*
D03*
Y63796D02*
D03*
D34*
X218405Y-105886D02*
D03*
X219276Y-74509D02*
D03*
X77289Y-73421D02*
D03*
X77687Y-104866D02*
D03*
D35*
X161966Y-64875D02*
D03*
X169537D02*
D03*
X162482Y-49906D02*
D03*
X170053D02*
D03*
D36*
X137155Y-53695D02*
D03*
Y-58695D02*
D03*
Y-63695D02*
D03*
X151955D02*
D03*
Y-58695D02*
D03*
Y-53695D02*
D03*
D37*
X112046Y-61165D02*
D03*
X120546Y-64665D02*
D03*
X112046Y-68165D02*
D03*
D38*
X43078Y-31674D02*
D03*
Y-50675D02*
D03*
X63078Y-41175D02*
D03*
D39*
X101885Y11118D02*
D03*
X87385D02*
D03*
X9295Y-37236D02*
D03*
X23795D02*
D03*
X9295Y-58343D02*
D03*
X23795D02*
D03*
X29179Y32711D02*
D03*
X43679D02*
D03*
D40*
X58061Y-8264D02*
D03*
Y10736D02*
D03*
D41*
X92989Y70540D02*
D03*
D42*
X87989D02*
D03*
X82989D02*
D03*
X77989D02*
D03*
X72989D02*
D03*
X67989D02*
D03*
Y31249D02*
D03*
X72989D02*
D03*
X77989D02*
D03*
X82989D02*
D03*
X87989D02*
D03*
X92989D02*
D03*
D43*
X60844Y63394D02*
D03*
Y58394D02*
D03*
Y53394D02*
D03*
Y48394D02*
D03*
Y43394D02*
D03*
Y38394D02*
D03*
X100135D02*
D03*
Y43394D02*
D03*
Y48394D02*
D03*
Y53394D02*
D03*
Y58394D02*
D03*
Y63394D02*
D03*
D44*
X75508Y86923D02*
D03*
Y103439D02*
D03*
D45*
X35806Y84113D02*
D03*
Y97647D02*
D03*
D46*
X28985Y70031D02*
D03*
X47985D02*
D03*
X29169Y52164D02*
D03*
X48169D02*
D03*
D47*
X-98154Y47014D02*
D03*
Y33014D02*
D03*
D48*
X-38788Y-2891D02*
D03*
X-25253D02*
D03*
X-39317Y-22286D02*
D03*
X-25783D02*
D03*
D49*
X221369Y21710D02*
D03*
Y16710D02*
D03*
Y11710D02*
D03*
Y6710D02*
D03*
Y1710D02*
D03*
Y-3290D02*
D03*
Y-8290D02*
D03*
Y-13290D02*
D03*
D50*
Y28210D02*
D03*
Y-19790D02*
D03*
Y36210D02*
D03*
Y-27790D02*
D03*
D51*
X227120Y55310D02*
D03*
Y-46890D02*
D03*
X266419Y55310D02*
D03*
Y-46890D02*
D03*
D52*
X22424Y-12016D02*
D03*
Y11684D02*
D03*
D53*
X-81026Y-5180D02*
D03*
Y-17680D02*
D03*
D54*
X-98806Y-17660D02*
D03*
Y-2660D02*
D03*
D64*
X80489Y50894D02*
D03*
D67*
X232119Y33110D02*
D03*
Y-24690D02*
D03*
D68*
X-129178Y-93003D02*
D03*
X-154579D02*
D03*
D69*
X-179979D02*
D03*
D71*
X-237741Y1501D02*
D03*
X-239941Y22954D02*
D03*
X-255344Y23504D02*
D03*
X-235816Y-30404D02*
D03*
X170325Y31926D02*
D03*
X35814Y-61723D02*
D03*
X42527Y-91189D02*
D03*
X48948Y-105401D02*
D03*
X49678Y-76612D02*
D03*
X29716Y-82655D02*
D03*
X96666Y-132951D02*
D03*
X198420Y-125050D02*
D03*
X213609Y-123810D02*
D03*
X189400Y-63134D02*
D03*
X247985Y-68360D02*
D03*
X268888Y77688D02*
D03*
X268083Y92796D02*
D03*
X-95768Y69043D02*
D03*
X-48260Y-38101D02*
D03*
X157988Y92709D02*
D03*
X163068Y119633D02*
D03*
X147828Y114045D02*
D03*
X103156Y-35243D02*
D03*
X95758Y115569D02*
D03*
X103124Y28193D02*
D03*
X138176Y75437D02*
D03*
X12954Y32257D02*
D03*
X-11938Y37899D02*
D03*
X197358Y-9145D02*
D03*
X171704Y136905D02*
D03*
X-209296Y-48769D02*
D03*
X-234950Y-74423D02*
D03*
M02*
